<svg xmlns="http://www.w3.org/2000/svg" viewBox="0 0 278.33 53.67"><defs><style>.cls-1{isolation:isolate;}.cls-2{fill:#404041;}.cls-3{fill:#ef5923;}.cls-4{fill:#9ec43b;mix-blend-mode:multiply;}</style></defs><title>Obszar roboczy 5</title><g class="cls-1"><g id="Layer_1" data-name="Layer 1"><path class="cls-2" d="M55.8,24.9a6.57,6.57,0,0,1,2.53.47,5.33,5.33,0,0,1,1.92,1.33,5.88,5.88,0,0,1,1.21,2.08,9,9,0,0,1,0,5.44,5.87,5.87,0,0,1-1.21,2.07,5.26,5.26,0,0,1-1.92,1.32,7.17,7.17,0,0,1-5.06,0,5.33,5.33,0,0,1-1.92-1.32,5.9,5.9,0,0,1-1.22-2.07,8.85,8.85,0,0,1,0-5.44,5.9,5.9,0,0,1,1.22-2.08,5.41,5.41,0,0,1,1.92-1.33A6.58,6.58,0,0,1,55.8,24.9Zm0,11.4A3.28,3.28,0,0,0,58.63,35a5.87,5.87,0,0,0,.93-3.54,5.93,5.93,0,0,0-.93-3.56,3.27,3.27,0,0,0-2.83-1.27,3.92,3.92,0,0,0-1.66.33,3.12,3.12,0,0,0-1.18.95,4.2,4.2,0,0,0-.71,1.52,8.17,8.17,0,0,0-.23,2,8.08,8.08,0,0,0,.23,2A4.13,4.13,0,0,0,53,35a3.13,3.13,0,0,0,1.18.94A3.92,3.92,0,0,0,55.8,36.31Z"/><path class="cls-2" d="M72,27.21a.5.5,0,0,1-.47.28.88.88,0,0,1-.43-.14L70.49,27a5.52,5.52,0,0,0-.83-.32,3.94,3.94,0,0,0-1.13-.15,3.36,3.36,0,0,0-1,.15,2.46,2.46,0,0,0-.78.4,1.75,1.75,0,0,0-.49.59,1.58,1.58,0,0,0-.17.72,1.21,1.21,0,0,0,.28.82,2.46,2.46,0,0,0,.75.57,6.53,6.53,0,0,0,1.06.42l1.22.39q.62.21,1.22.46a4.46,4.46,0,0,1,1.06.63,2.9,2.9,0,0,1,.75.93A2.84,2.84,0,0,1,72.69,34a4.18,4.18,0,0,1-.32,1.63,3.57,3.57,0,0,1-.93,1.3,4.51,4.51,0,0,1-1.51.86,6.23,6.23,0,0,1-2.07.32,6.46,6.46,0,0,1-2.42-.44,6.13,6.13,0,0,1-1.84-1.12l.53-.86a.77.77,0,0,1,.24-.25.68.68,0,0,1,.37-.09.84.84,0,0,1,.48.18c.17.12.37.25.61.39a4.67,4.67,0,0,0,.87.39,4,4,0,0,0,1.28.18,3.52,3.52,0,0,0,1.15-.17,2.41,2.41,0,0,0,.82-.46,1.82,1.82,0,0,0,.49-.67,2.07,2.07,0,0,0,.16-.81,1.34,1.34,0,0,0-.28-.88,2.4,2.4,0,0,0-.75-.59,6.13,6.13,0,0,0-1.07-.43l-1.22-.38q-.63-.2-1.22-.46A4.26,4.26,0,0,1,65,31a2.94,2.94,0,0,1-.75-1,3.13,3.13,0,0,1-.28-1.39,3.4,3.4,0,0,1,.3-1.41A3.43,3.43,0,0,1,65.12,26a4.35,4.35,0,0,1,1.43-.81,5.72,5.72,0,0,1,1.93-.3,6.12,6.12,0,0,1,2.26.4,5.36,5.36,0,0,1,1.73,1.09Z"/><path class="cls-2" d="M78.61,21.09a1.44,1.44,0,0,1-.13.61,1.77,1.77,0,0,1-.35.5,1.64,1.64,0,0,1-.51.35,1.53,1.53,0,0,1-.62.13,1.49,1.49,0,0,1-.61-.13,1.69,1.69,0,0,1-.85-.85,1.48,1.48,0,0,1-.13-.61,1.56,1.56,0,0,1,.13-.62,1.61,1.61,0,0,1,.35-.52,1.67,1.67,0,0,1,.5-.35,1.49,1.49,0,0,1,.61-.13,1.53,1.53,0,0,1,.62.13,1.65,1.65,0,0,1,.51.35,1.71,1.71,0,0,1,.35.52A1.52,1.52,0,0,1,78.61,21.09Zm-.5,4V37.88H75.86V25.1Z"/><path class="cls-2" d="M87.12,24.9a5.72,5.72,0,0,1,2.12.38,4.76,4.76,0,0,1,1.68,1.11A5.07,5.07,0,0,1,92,28.19a6.92,6.92,0,0,1,.4,2.43,1.46,1.46,0,0,1-.11.71.47.47,0,0,1-.43.18h-8.5a7.11,7.11,0,0,0,.33,2.11,4.31,4.31,0,0,0,.83,1.5,3.33,3.33,0,0,0,1.26.9,4.34,4.34,0,0,0,1.64.3,4.8,4.8,0,0,0,1.46-.2,6.9,6.9,0,0,0,1.05-.42,8.13,8.13,0,0,0,.74-.42,1,1,0,0,1,.51-.2.5.5,0,0,1,.43.21l.63.82a4.25,4.25,0,0,1-1,.88,6.18,6.18,0,0,1-1.24.61,7.88,7.88,0,0,1-1.37.36,8.34,8.34,0,0,1-1.4.12,6.49,6.49,0,0,1-2.44-.45,5.35,5.35,0,0,1-1.93-1.31,6,6,0,0,1-1.27-2.14,8.69,8.69,0,0,1-.45-2.93,7.45,7.45,0,0,1,.41-2.5,5.88,5.88,0,0,1,1.18-2,5.42,5.42,0,0,1,1.88-1.34A6.17,6.17,0,0,1,87.12,24.9Zm.05,1.65a3.45,3.45,0,0,0-2.56.94,4.43,4.43,0,0,0-1.16,2.61h7a4.54,4.54,0,0,0-.21-1.43,3.18,3.18,0,0,0-.63-1.12,2.83,2.83,0,0,0-1-.73A3.43,3.43,0,0,0,87.17,26.56Z"/><path class="cls-2" d="M104.28,37.88a.57.57,0,0,1-.61-.47l-.2-1.55a6.72,6.72,0,0,1-1.87,1.6,4.8,4.8,0,0,1-2.41.6,4.6,4.6,0,0,1-2-.42,4.12,4.12,0,0,1-1.53-1.24,5.91,5.91,0,0,1-1-2,10.5,10.5,0,0,1-.34-2.81,8.79,8.79,0,0,1,.38-2.63,6.4,6.4,0,0,1,1.09-2.11,5,5,0,0,1,4.06-1.92,4.63,4.63,0,0,1,2,.4,4.8,4.8,0,0,1,1.49,1.12V19.3h2.25V37.88Zm-4.35-1.64a3.62,3.62,0,0,0,1.92-.5,5.53,5.53,0,0,0,1.52-1.43V28.13A3.56,3.56,0,0,0,102,27a3.92,3.92,0,0,0-1.63-.33,3.23,3.23,0,0,0-2.75,1.27,6,6,0,0,0-1,3.63,9.2,9.2,0,0,0,.21,2.14,4.08,4.08,0,0,0,.63,1.46,2.46,2.46,0,0,0,1,.84A3.43,3.43,0,0,0,99.93,36.24Z"/><path class="cls-2" d="M111.89,19.3V37.88h-2.25V19.3Z"/><path class="cls-2" d="M120.91,24.9a5.72,5.72,0,0,1,2.12.38,4.76,4.76,0,0,1,1.68,1.11,5.07,5.07,0,0,1,1.1,1.79,6.92,6.92,0,0,1,.4,2.43,1.46,1.46,0,0,1-.11.71.47.47,0,0,1-.43.18h-8.5a7.11,7.11,0,0,0,.33,2.11,4.31,4.31,0,0,0,.83,1.5,3.33,3.33,0,0,0,1.26.9,4.34,4.34,0,0,0,1.64.3,4.8,4.8,0,0,0,1.46-.2,6.9,6.9,0,0,0,1.05-.42,8.13,8.13,0,0,0,.74-.42,1,1,0,0,1,.51-.2.5.5,0,0,1,.43.21l.63.82a4.25,4.25,0,0,1-1,.88,6.18,6.18,0,0,1-1.24.61,7.88,7.88,0,0,1-1.37.36,8.34,8.34,0,0,1-1.4.12,6.49,6.49,0,0,1-2.44-.45,5.35,5.35,0,0,1-1.93-1.31,6,6,0,0,1-1.27-2.14,8.69,8.69,0,0,1-.45-2.93,7.45,7.45,0,0,1,.41-2.5,5.88,5.88,0,0,1,1.18-2,5.42,5.42,0,0,1,1.88-1.34A6.17,6.17,0,0,1,120.91,24.9Zm.05,1.65a3.45,3.45,0,0,0-2.56.94,4.43,4.43,0,0,0-1.16,2.61h7a4.54,4.54,0,0,0-.21-1.43,3.18,3.18,0,0,0-.63-1.12,2.83,2.83,0,0,0-1-.73A3.43,3.43,0,0,0,121,26.56Z"/><path class="cls-2" d="M140.35,33.52h8.73v4.37h-14.2V14.33h5.46Z"/><path class="cls-2" d="M161.47,33.57a5,5,0,0,0,2-.36,4,4,0,0,0,1.46-1,4.63,4.63,0,0,0,.91-1.66,7.24,7.24,0,0,0,.31-2.22v-14h5.47v14a10.9,10.9,0,0,1-.7,4,9,9,0,0,1-2,3.12,9.08,9.08,0,0,1-3.19,2,12.65,12.65,0,0,1-8.46,0,9.08,9.08,0,0,1-3.19-2,8.83,8.83,0,0,1-2-3.12,11,11,0,0,1-.7-4v-14h5.46V28.26a7.25,7.25,0,0,0,.32,2.22,4.68,4.68,0,0,0,.91,1.67,3.92,3.92,0,0,0,1.46,1.05A5,5,0,0,0,161.47,33.57Z"/><path class="cls-2" d="M192.26,14.33v4.33h-6.63V37.88h-5.46V18.66h-6.63V14.33Z"/><path class="cls-2" d="M206.26,28.93v9h-5.47v-9l-8.54-14.6h4.82a1.78,1.78,0,0,1,1.13.33,2.46,2.46,0,0,1,.68.85l3.33,6.86.74,1.52q.34.7.6,1.38a12.49,12.49,0,0,1,.58-1.39l.73-1.5,3.3-6.86a2,2,0,0,1,.27-.42,2.34,2.34,0,0,1,.39-.38,1.88,1.88,0,0,1,.5-.28,1.79,1.79,0,0,1,.62-.1h4.85Z"/><path class="cls-2" d="M219.89,14.36a1.52,1.52,0,0,1,.44.12,1.47,1.47,0,0,1,.37.25,4.25,4.25,0,0,1,.4.44l11.19,14.15q-.06-.68-.1-1.32t0-1.2V14.33H237V37.88h-2.85a2.62,2.62,0,0,1-1.07-.19,2.28,2.28,0,0,1-.84-.71l-11.11-14c0,.41.06.81.08,1.2s0,.76,0,1.11V37.88h-4.82V14.33h2.88A4.66,4.66,0,0,1,219.89,14.36Z"/><path class="cls-2" d="M246.84,37.88h-5.5V14.33h5.5Z"/><path class="cls-2" d="M273.13,37.88H268.9a2,2,0,0,1-1.17-.33,1.72,1.72,0,0,1-.64-.85L265.7,32.6h-9l-1.39,4.11a1.88,1.88,0,0,1-1.78,1.18H249.3l9.12-23.56H264Zm-15.13-9h6.44l-2.17-6.45L261.78,21q-.28-.83-.56-1.8-.26,1-.53,1.83t-.52,1.46Z"/><polygon class="cls-3" points="17.09 50.28 3.03 50.28 30.56 5.08 44.62 5.08 17.09 50.28"/><polygon class="cls-4" points="41.88 36.24 27.82 36.24 46.48 5.08 60.54 5.08 41.88 36.24"/><polygon class="cls-4" points="56.47 22.25 70.53 22.25 60.54 5.08 46.48 5.08 56.47 22.25"/></g></g></svg>