<svg xmlns="http://www.w3.org/2000/svg" xmlns:xlink="http://www.w3.org/1999/xlink" viewBox="0 0 229.92 52.5"><defs><style>.cls-1{fill:none;}.cls-2{isolation:isolate;}.cls-3{clip-path:url(#clip-path);}.cls-4{fill:#404041;}.cls-5{fill:#ef5923;}.cls-6{mix-blend-mode:multiply;}.cls-7{clip-path:url(#clip-path-3);}.cls-8{fill:#3a62ac;}.cls-9{clip-path:url(#clip-path-4);}</style><clipPath id="clip-path"><rect class="cls-1" x="-134.42" y="-225.48" width="524" height="385"/></clipPath><clipPath id="clip-path-3"><rect class="cls-1" x="30.4" y="4.6" width="32.72" height="31.16"/></clipPath><clipPath id="clip-path-4"><rect class="cls-1" x="49.06" y="4.6" width="24.06" height="17.18"/></clipPath></defs><title>Obszar roboczy 4</title><g class="cls-2"><g id="Warstwa_1" data-name="Warstwa 1"><g class="cls-3"><g class="cls-3"><path class="cls-4" d="M58.38,24.42a6.6,6.6,0,0,1,2.53.46,5.33,5.33,0,0,1,1.92,1.33A5.85,5.85,0,0,1,64,28.29a9,9,0,0,1,0,5.44,5.87,5.87,0,0,1-1.21,2.07,5.24,5.24,0,0,1-1.92,1.32,7.17,7.17,0,0,1-5.06,0,5.32,5.32,0,0,1-1.92-1.32,5.92,5.92,0,0,1-1.22-2.07,8.87,8.87,0,0,1,0-5.44,5.9,5.9,0,0,1,1.22-2.08,5.42,5.42,0,0,1,1.92-1.33,6.6,6.6,0,0,1,2.53-.46m0,11.4a3.28,3.28,0,0,0,2.83-1.27A5.87,5.87,0,0,0,62.14,31a5.92,5.92,0,0,0-.93-3.56,3.27,3.27,0,0,0-2.83-1.28,3.92,3.92,0,0,0-1.67.33,3.13,3.13,0,0,0-1.18.95A4.19,4.19,0,0,0,54.83,29a9,9,0,0,0,0,4.07,4.13,4.13,0,0,0,.71,1.51,3.15,3.15,0,0,0,1.18.94,3.92,3.92,0,0,0,1.67.33"/><path class="cls-4" d="M74.55,26.73a.5.5,0,0,1-.47.28.9.9,0,0,1-.43-.14l-.58-.31a5.68,5.68,0,0,0-.83-.32,4,4,0,0,0-1.13-.14,3.39,3.39,0,0,0-1,.14,2.48,2.48,0,0,0-.78.4,1.73,1.73,0,0,0-.49.59,1.55,1.55,0,0,0-.17.72,1.21,1.21,0,0,0,.28.82,2.45,2.45,0,0,0,.75.57,6.6,6.6,0,0,0,1.06.42l1.22.39c.42.14.82.29,1.22.46a4.48,4.48,0,0,1,1.06.63,2.9,2.9,0,0,1,.75.93,2.83,2.83,0,0,1,.29,1.32A4.18,4.18,0,0,1,75,35.13a3.59,3.59,0,0,1-.93,1.3,4.48,4.48,0,0,1-1.51.86,6.2,6.2,0,0,1-2.07.32A6.48,6.48,0,0,1,68,37.17a6.14,6.14,0,0,1-1.84-1.12l.53-.86a.75.75,0,0,1,.24-.25.67.67,0,0,1,.37-.09.84.84,0,0,1,.48.18c.17.12.37.25.61.39a4.64,4.64,0,0,0,.87.39,3.93,3.93,0,0,0,1.28.18,3.51,3.51,0,0,0,1.15-.17,2.41,2.41,0,0,0,.82-.46,1.84,1.84,0,0,0,.48-.67,2.08,2.08,0,0,0,.16-.81,1.33,1.33,0,0,0-.28-.88,2.38,2.38,0,0,0-.75-.59A6.19,6.19,0,0,0,71.07,32l-1.22-.38c-.42-.13-.83-.29-1.22-.46a4.32,4.32,0,0,1-1.07-.65,3,3,0,0,1-.75-1,3.15,3.15,0,0,1-.28-1.39,3.37,3.37,0,0,1,.3-1.41,3.42,3.42,0,0,1,.88-1.19,4.33,4.33,0,0,1,1.43-.81,5.72,5.72,0,0,1,1.93-.3,6.14,6.14,0,0,1,2.27.4,5.36,5.36,0,0,1,1.73,1.09Z"/><path class="cls-4" d="M81.19,20.61a1.47,1.47,0,0,1-.13.61,1.8,1.8,0,0,1-.35.5,1.66,1.66,0,0,1-.51.35,1.53,1.53,0,0,1-.62.12,1.49,1.49,0,0,1-.61-.12,1.7,1.7,0,0,1-.85-.85,1.5,1.5,0,0,1-.13-.61,1.57,1.57,0,0,1,.13-.62,1.6,1.6,0,0,1,.35-.52,1.66,1.66,0,0,1,.5-.35,1.52,1.52,0,0,1,.61-.12,1.57,1.57,0,0,1,.62.13,1.66,1.66,0,0,1,.51.35,1.73,1.73,0,0,1,.35.52,1.54,1.54,0,0,1,.13.62m-.5,16.79H78.44V24.63h2.25Z"/><path class="cls-4" d="M89.7,24.42a5.71,5.71,0,0,1,2.12.38,4.76,4.76,0,0,1,1.68,1.11,5.09,5.09,0,0,1,1.11,1.79,6.94,6.94,0,0,1,.4,2.43,1.46,1.46,0,0,1-.11.71.47.47,0,0,1-.43.18H86a7.15,7.15,0,0,0,.33,2.11,4.32,4.32,0,0,0,.83,1.49,3.32,3.32,0,0,0,1.26.9,4.33,4.33,0,0,0,1.64.29,4.81,4.81,0,0,0,1.46-.2,6.93,6.93,0,0,0,1.05-.42q.44-.23.74-.42a1,1,0,0,1,.51-.2.49.49,0,0,1,.43.21l.63.82a4.26,4.26,0,0,1-1,.88,6.22,6.22,0,0,1-1.24.61,7.76,7.76,0,0,1-1.37.36,8.36,8.36,0,0,1-1.4.12,6.49,6.49,0,0,1-2.44-.45,5.34,5.34,0,0,1-1.93-1.31,6,6,0,0,1-1.27-2.14,8.67,8.67,0,0,1-.46-2.93,7.45,7.45,0,0,1,.41-2.5,5.88,5.88,0,0,1,1.18-2,5.42,5.42,0,0,1,1.88-1.34,6.16,6.16,0,0,1,2.5-.49m.05,1.65a3.46,3.46,0,0,0-2.56.94A4.44,4.44,0,0,0,86,29.62h7a4.56,4.56,0,0,0-.21-1.43,3.19,3.19,0,0,0-.63-1.12,2.86,2.86,0,0,0-1-.73,3.43,3.43,0,0,0-1.37-.26"/><path class="cls-4" d="M106.86,37.41a.57.57,0,0,1-.61-.47l-.2-1.55a6.75,6.75,0,0,1-1.87,1.6,4.81,4.81,0,0,1-2.41.6,4.58,4.58,0,0,1-2-.42,4.11,4.11,0,0,1-1.53-1.24,5.88,5.88,0,0,1-1-2,10.47,10.47,0,0,1-.34-2.81,8.79,8.79,0,0,1,.38-2.63,6.38,6.38,0,0,1,1.09-2.11,5,5,0,0,1,4.05-1.92,4.64,4.64,0,0,1,2,.4A4.82,4.82,0,0,1,106,25.91V18.82h2.25V37.41Zm-4.35-1.64a3.62,3.62,0,0,0,1.92-.51A5.52,5.52,0,0,0,106,33.84V27.65a3.55,3.55,0,0,0-1.36-1.17,3.92,3.92,0,0,0-1.63-.33,3.23,3.23,0,0,0-2.75,1.27,6,6,0,0,0-1,3.63,9.19,9.19,0,0,0,.21,2.14,4.09,4.09,0,0,0,.63,1.46,2.47,2.47,0,0,0,1,.84,3.45,3.45,0,0,0,1.39.27"/><rect class="cls-4" x="112.22" y="18.82" width="2.25" height="18.58"/><polygon class="cls-5" points="19.67 49.81 5.61 49.81 33.14 4.6 47.2 4.6 19.67 49.81"/><g class="cls-6"><g class="cls-7"><polygon class="cls-8" points="44.46 35.76 30.4 35.76 49.06 4.6 63.12 4.6 44.46 35.76"/></g></g><g class="cls-6"><g class="cls-9"><polygon class="cls-8" points="59.05 21.78 73.11 21.78 63.12 4.6 49.06 4.6 59.05 21.78"/></g></g></g><path class="cls-4" d="M150.27,18.83a2.07,2.07,0,0,1-.5.58,1.13,1.13,0,0,1-.68.19,1.66,1.66,0,0,1-.79-.23l-1-.52a8,8,0,0,0-1.22-.52,4.89,4.89,0,0,0-1.56-.23,3.37,3.37,0,0,0-2.26.65,2.21,2.21,0,0,0-.74,1.75,1.61,1.61,0,0,0,.45,1.17,3.83,3.83,0,0,0,1.17.8,12.63,12.63,0,0,0,1.66.61c.63.19,1.26.39,1.91.62a17.32,17.32,0,0,1,1.91.81,6.38,6.38,0,0,1,1.66,1.18,5.55,5.55,0,0,1,1.18,1.75,6.26,6.26,0,0,1,.45,2.49,8.1,8.1,0,0,1-.56,3,7.1,7.1,0,0,1-1.62,2.45A7.54,7.54,0,0,1,147.13,37a9.81,9.81,0,0,1-3.54.6,11.3,11.3,0,0,1-2.21-.23,13,13,0,0,1-2.18-.63,12.55,12.55,0,0,1-2-1,8.43,8.43,0,0,1-1.61-1.25L137.2,32a1.28,1.28,0,0,1,.5-.46,1.4,1.4,0,0,1,.69-.18,1.8,1.8,0,0,1,1,.31l1.1.67a9.13,9.13,0,0,0,1.41.67,5.31,5.31,0,0,0,1.89.3,3.58,3.58,0,0,0,2.28-.65,2.47,2.47,0,0,0,.82-2.05,1.94,1.94,0,0,0-.45-1.32,3.46,3.46,0,0,0-1.17-.85,11,11,0,0,0-1.65-.59c-.62-.17-1.25-.36-1.9-.57a13.93,13.93,0,0,1-1.9-.77,6,6,0,0,1-1.65-1.2,5.65,5.65,0,0,1-1.18-1.85,7.39,7.39,0,0,1-.45-2.74,6.52,6.52,0,0,1,.53-2.56A6.63,6.63,0,0,1,138.57,16a7.62,7.62,0,0,1,2.51-1.56,9.29,9.29,0,0,1,3.4-.58,12.78,12.78,0,0,1,2.09.17,11,11,0,0,1,1.93.5,10.71,10.71,0,0,1,1.7.78,7.84,7.84,0,0,1,1.41,1Z"/><path class="cls-4" d="M177.6,25.74a12.51,12.51,0,0,1-.87,4.7,11.11,11.11,0,0,1-6.26,6.3,13.91,13.91,0,0,1-9.9,0,11.13,11.13,0,0,1-6.29-6.3,13.12,13.12,0,0,1,0-9.4,11.18,11.18,0,0,1,2.46-3.77,11.36,11.36,0,0,1,3.83-2.51,13,13,0,0,1,5-.91,12.88,12.88,0,0,1,4.95.92,11.41,11.41,0,0,1,3.81,2.52,11.25,11.25,0,0,1,2.45,3.77A12.46,12.46,0,0,1,177.6,25.74Zm-5.53,0a10.09,10.09,0,0,0-.45-3.11,6.62,6.62,0,0,0-1.29-2.34,5.58,5.58,0,0,0-2.05-1.47,7.06,7.06,0,0,0-2.76-.51,7.16,7.16,0,0,0-2.79.51,5.56,5.56,0,0,0-2.06,1.47,6.59,6.59,0,0,0-1.29,2.34,10,10,0,0,0-.45,3.11,10.09,10.09,0,0,0,.45,3.12,6.57,6.57,0,0,0,1.29,2.34,5.48,5.48,0,0,0,2.06,1.46,7.27,7.27,0,0,0,2.79.5,7.17,7.17,0,0,0,2.76-.5,5.49,5.49,0,0,0,2.05-1.46,6.59,6.59,0,0,0,1.29-2.34A10.13,10.13,0,0,0,172.07,25.74Z"/><path class="cls-4" d="M191.15,33.49a9.28,9.28,0,0,0,2-.19,9.94,9.94,0,0,0,1.63-.51V29.25h-2.3a1.12,1.12,0,0,1-.8-.27.91.91,0,0,1-.29-.69v-3h8.28v9.83a11.81,11.81,0,0,1-3.92,1.9,15,15,0,0,1-2.33.45,22.78,22.78,0,0,1-2.66.15,12.2,12.2,0,0,1-4.73-.9,11.32,11.32,0,0,1-6.26-6.26,12.26,12.26,0,0,1-.9-4.74,12.92,12.92,0,0,1,.86-4.79,10.8,10.8,0,0,1,2.47-3.76,11.21,11.21,0,0,1,3.88-2.46,14,14,0,0,1,5.09-.88,14.82,14.82,0,0,1,2.73.24,13.39,13.39,0,0,1,2.36.66,10.86,10.86,0,0,1,2,1,10.57,10.57,0,0,1,1.6,1.25l-1.57,2.38a1.74,1.74,0,0,1-.53.53,1.28,1.28,0,0,1-.68.19,1.88,1.88,0,0,1-1-.32c-.42-.26-.83-.48-1.21-.66a7.27,7.27,0,0,0-1.16-.46,7.56,7.56,0,0,0-1.25-.26,12.11,12.11,0,0,0-1.47-.08,6.73,6.73,0,0,0-2.73.53,5.85,5.85,0,0,0-2.07,1.51,6.82,6.82,0,0,0-1.32,2.34,9.47,9.47,0,0,0-.46,3,9.79,9.79,0,0,0,.51,3.29,7,7,0,0,0,1.41,2.43A6,6,0,0,0,188.44,33,6.94,6.94,0,0,0,191.15,33.49Z"/><path class="cls-4" d="M225.92,25.74a12.53,12.53,0,0,1-.87,4.7,11.11,11.11,0,0,1-6.26,6.3,13.9,13.9,0,0,1-9.9,0,11.12,11.12,0,0,1-6.29-6.3,13.12,13.12,0,0,1,0-9.4,11.21,11.21,0,0,1,2.46-3.77,11.37,11.37,0,0,1,3.83-2.51,13,13,0,0,1,5-.91,12.88,12.88,0,0,1,4.95.92,11.41,11.41,0,0,1,3.81,2.52,11.25,11.25,0,0,1,2.45,3.77A12.49,12.49,0,0,1,225.92,25.74Zm-5.53,0a10.07,10.07,0,0,0-.45-3.11,6.58,6.58,0,0,0-1.29-2.34,5.59,5.59,0,0,0-2.05-1.47,7.07,7.07,0,0,0-2.77-.51,7.17,7.17,0,0,0-2.79.51A5.55,5.55,0,0,0,209,20.29a6.58,6.58,0,0,0-1.29,2.34,10,10,0,0,0-.45,3.11,10.09,10.09,0,0,0,.45,3.12A6.56,6.56,0,0,0,209,31.2a5.47,5.47,0,0,0,2.06,1.46,7.28,7.28,0,0,0,2.79.5,7.18,7.18,0,0,0,2.77-.5,5.5,5.5,0,0,0,2.05-1.46,6.56,6.56,0,0,0,1.29-2.34A10.11,10.11,0,0,0,220.39,25.74Z"/><path class="cls-4" d="M127.83,34.46a21.53,21.53,0,0,0,.19,3.08h-2.1l-.19-1.62h-.08a4.78,4.78,0,0,1-3.93,1.91,3.66,3.66,0,0,1-3.93-3.69c0-3.1,2.76-4.8,7.72-4.77v-.27a2.63,2.63,0,0,0-2.92-2.94,6.19,6.19,0,0,0-3.37,1l-.53-1.57A8.31,8.31,0,0,1,123,24.44c3.93,0,4.88,2.68,4.88,5.23ZM125.58,31c-2.55-.05-5.44.4-5.44,2.89a2,2,0,0,0,2.18,2.23A3.24,3.24,0,0,0,125.47,34a2.64,2.64,0,0,0,.11-.74Z"/></g></g></g></svg>