<svg xmlns="http://www.w3.org/2000/svg" xmlns:xlink="http://www.w3.org/1999/xlink" viewBox="0 0 315.08 45.21"><defs><style>.cls-1{fill:none;}.cls-2{isolation:isolate;}.cls-3{clip-path:url(#clip-path);}.cls-4{fill:#404041;}.cls-5{fill:#7fdbd6;}.cls-6{mix-blend-mode:multiply;}.cls-7{clip-path:url(#clip-path-3);}.cls-8{fill:#ff6800;}.cls-9{clip-path:url(#clip-path-4);}</style><clipPath id="clip-path"><rect class="cls-1" x="-136.67" y="-230.08" width="524" height="385"/></clipPath><clipPath id="clip-path-3"><rect class="cls-1" x="28.15" width="32.72" height="31.16"/></clipPath><clipPath id="clip-path-4"><rect class="cls-1" x="46.81" width="24.06" height="17.18"/></clipPath></defs><title>logoPoziome</title><g class="cls-2"><g id="Warstwa_1" data-name="Warstwa 1"><g class="cls-3"><g class="cls-3"><path class="cls-4" d="M56.13,19.82a6.6,6.6,0,0,1,2.53.46,5.33,5.33,0,0,1,1.92,1.33,5.85,5.85,0,0,1,1.21,2.08,9,9,0,0,1,0,5.44,5.87,5.87,0,0,1-1.21,2.07,5.24,5.24,0,0,1-1.92,1.32,7.17,7.17,0,0,1-5.06,0,5.32,5.32,0,0,1-1.92-1.32,5.92,5.92,0,0,1-1.22-2.07,8.87,8.87,0,0,1,0-5.44,5.9,5.9,0,0,1,1.22-2.08,5.42,5.42,0,0,1,1.92-1.33,6.6,6.6,0,0,1,2.53-.46m0,11.4A3.28,3.28,0,0,0,59,30a5.87,5.87,0,0,0,.93-3.54A5.92,5.92,0,0,0,59,22.87a3.27,3.27,0,0,0-2.83-1.28,3.92,3.92,0,0,0-1.67.33,3.13,3.13,0,0,0-1.18.95,4.19,4.19,0,0,0-.71,1.52,9,9,0,0,0,0,4.07A4.13,4.13,0,0,0,53.29,30a3.15,3.15,0,0,0,1.18.94,3.92,3.92,0,0,0,1.67.33"/><path class="cls-4" d="M72.31,22.13a.5.5,0,0,1-.47.28.9.9,0,0,1-.43-.14L70.83,22a5.68,5.68,0,0,0-.83-.32,4,4,0,0,0-1.13-.14,3.39,3.39,0,0,0-1,.14,2.48,2.48,0,0,0-.78.4,1.73,1.73,0,0,0-.49.59,1.55,1.55,0,0,0-.17.72,1.21,1.21,0,0,0,.28.82,2.45,2.45,0,0,0,.75.57,6.6,6.6,0,0,0,1.06.42l1.22.39c.42.14.82.29,1.22.46a4.48,4.48,0,0,1,1.06.63,2.9,2.9,0,0,1,.75.93A2.83,2.83,0,0,1,73,28.89a4.18,4.18,0,0,1-.32,1.63,3.59,3.59,0,0,1-.93,1.3,4.48,4.48,0,0,1-1.51.86,6.2,6.2,0,0,1-2.07.32,6.48,6.48,0,0,1-2.42-.44,6.14,6.14,0,0,1-1.84-1.12l.53-.86a.75.75,0,0,1,.24-.25.67.67,0,0,1,.37-.09.84.84,0,0,1,.48.18c.17.12.37.25.61.39a4.64,4.64,0,0,0,.87.39,3.93,3.93,0,0,0,1.28.18,3.51,3.51,0,0,0,1.15-.17,2.41,2.41,0,0,0,.82-.46,1.84,1.84,0,0,0,.48-.67,2.08,2.08,0,0,0,.16-.81,1.33,1.33,0,0,0-.28-.88,2.38,2.38,0,0,0-.75-.59,6.19,6.19,0,0,0-1.06-.43L67.6,27c-.42-.13-.83-.29-1.22-.46a4.32,4.32,0,0,1-1.07-.65,3,3,0,0,1-.75-1,3.15,3.15,0,0,1-.28-1.39,3.37,3.37,0,0,1,.3-1.41,3.42,3.42,0,0,1,.88-1.19,4.33,4.33,0,0,1,1.43-.81,5.72,5.72,0,0,1,1.93-.3,6.14,6.14,0,0,1,2.27.4,5.36,5.36,0,0,1,1.73,1.09Z"/><path class="cls-4" d="M78.94,16a1.47,1.47,0,0,1-.13.61,1.8,1.8,0,0,1-.35.5,1.66,1.66,0,0,1-.51.35,1.53,1.53,0,0,1-.62.13,1.49,1.49,0,0,1-.61-.12,1.7,1.7,0,0,1-.85-.85,1.5,1.5,0,0,1-.13-.61,1.57,1.57,0,0,1,.13-.62,1.6,1.6,0,0,1,.35-.52,1.66,1.66,0,0,1,.5-.35,1.52,1.52,0,0,1,.61-.12,1.57,1.57,0,0,1,.62.12,1.66,1.66,0,0,1,.51.35,1.73,1.73,0,0,1,.35.52,1.54,1.54,0,0,1,.13.62m-.5,16.79H76.19V20h2.25Z"/><path class="cls-4" d="M87.46,19.82a5.71,5.71,0,0,1,2.12.38,4.76,4.76,0,0,1,1.68,1.11,5.09,5.09,0,0,1,1.11,1.79,6.94,6.94,0,0,1,.4,2.43,1.46,1.46,0,0,1-.11.71.47.47,0,0,1-.43.18h-8.5A7.15,7.15,0,0,0,84,28.53,4.32,4.32,0,0,0,84.87,30a3.32,3.32,0,0,0,1.26.9,4.33,4.33,0,0,0,1.64.29,4.81,4.81,0,0,0,1.46-.2,6.93,6.93,0,0,0,1.05-.42q.44-.23.74-.42a1,1,0,0,1,.51-.2.49.49,0,0,1,.43.21l.63.82a4.26,4.26,0,0,1-1,.88,6.22,6.22,0,0,1-1.24.61,7.76,7.76,0,0,1-1.37.36,8.36,8.36,0,0,1-1.4.12,6.49,6.49,0,0,1-2.44-.45,5.34,5.34,0,0,1-1.93-1.31,6,6,0,0,1-1.27-2.14,8.67,8.67,0,0,1-.46-2.93,7.45,7.45,0,0,1,.41-2.5,5.88,5.88,0,0,1,1.18-2A5.42,5.42,0,0,1,85,20.31a6.16,6.16,0,0,1,2.5-.49m.05,1.65a3.46,3.46,0,0,0-2.56.94A4.44,4.44,0,0,0,83.78,25h7a4.56,4.56,0,0,0-.21-1.43,3.19,3.19,0,0,0-.63-1.12,2.86,2.86,0,0,0-1-.73,3.43,3.43,0,0,0-1.37-.26"/><path class="cls-4" d="M104.61,32.8a.57.57,0,0,1-.61-.47l-.2-1.55a6.75,6.75,0,0,1-1.87,1.6,4.81,4.81,0,0,1-2.41.6,4.58,4.58,0,0,1-2-.42A4.11,4.11,0,0,1,96,31.32a5.88,5.88,0,0,1-1-2,10.47,10.47,0,0,1-.34-2.81,8.79,8.79,0,0,1,.38-2.63,6.38,6.38,0,0,1,1.09-2.11,5,5,0,0,1,4.05-1.92,4.64,4.64,0,0,1,2,.4,4.82,4.82,0,0,1,1.49,1.12V14.22H106V32.8Zm-4.35-1.64a3.62,3.62,0,0,0,1.92-.51,5.52,5.52,0,0,0,1.52-1.43V23.05a3.55,3.55,0,0,0-1.36-1.17,3.92,3.92,0,0,0-1.63-.33A3.23,3.23,0,0,0,98,22.83a6,6,0,0,0-1,3.63,9.19,9.19,0,0,0,.21,2.14,4.09,4.09,0,0,0,.63,1.46,2.47,2.47,0,0,0,1,.84,3.45,3.45,0,0,0,1.39.27"/><rect class="cls-4" x="109.97" y="14.22" width="2.25" height="18.58"/><path class="cls-4" d="M121.24,19.82a5.71,5.71,0,0,1,2.12.38A4.76,4.76,0,0,1,125,21.32a5.07,5.07,0,0,1,1.1,1.79,6.92,6.92,0,0,1,.4,2.43,1.46,1.46,0,0,1-.11.71.47.47,0,0,1-.43.18h-8.5a7.15,7.15,0,0,0,.33,2.11,4.32,4.32,0,0,0,.83,1.49,3.32,3.32,0,0,0,1.26.9,4.33,4.33,0,0,0,1.64.29A4.81,4.81,0,0,0,123,31a6.93,6.93,0,0,0,1.05-.42q.44-.23.74-.42a1,1,0,0,1,.51-.2.5.5,0,0,1,.43.21l.63.82a4.28,4.28,0,0,1-1,.88,6.22,6.22,0,0,1-1.24.61,7.76,7.76,0,0,1-1.37.36,8.36,8.36,0,0,1-1.4.12,6.49,6.49,0,0,1-2.44-.45A5.34,5.34,0,0,1,117,31.22a6,6,0,0,1-1.27-2.14,8.67,8.67,0,0,1-.46-2.93,7.45,7.45,0,0,1,.41-2.5,5.89,5.89,0,0,1,1.18-2,5.42,5.42,0,0,1,1.88-1.34,6.16,6.16,0,0,1,2.5-.49m.05,1.65a3.46,3.46,0,0,0-2.56.94A4.44,4.44,0,0,0,117.57,25h7a4.56,4.56,0,0,0-.21-1.43,3.19,3.19,0,0,0-.63-1.12,2.86,2.86,0,0,0-1-.73,3.43,3.43,0,0,0-1.37-.26"/><polygon class="cls-5" points="17.42 45.2 3.36 45.2 30.89 0 44.95 0 17.42 45.2"/><g class="cls-6"><g class="cls-7"><polygon class="cls-8" points="42.21 31.16 28.15 31.16 46.81 0 60.87 0 42.21 31.16"/></g></g><g class="cls-6"><g class="cls-9"><polygon class="cls-8" points="56.8 17.18 70.87 17.18 60.87 0 46.81 0 56.8 17.18"/></g></g></g></g><path class="cls-4" d="M140.65,18.79h.87a2,2,0,0,0,1.75-.76l5.3-7.69a2.27,2.27,0,0,1,1-.86,3.64,3.64,0,0,1,1.37-.23h4.75l-7,9.52a4.66,4.66,0,0,1-.78.86,4.9,4.9,0,0,1-.82.57,4.17,4.17,0,0,1,1.12.62,4.13,4.13,0,0,1,.93,1.06l7.11,10.92h-4.88a4.24,4.24,0,0,1-.8-.06,2.05,2.05,0,0,1-.57-.19,1.65,1.65,0,0,1-.42-.31,3.09,3.09,0,0,1-.34-.43l-5.33-8.19a1.6,1.6,0,0,0-.74-.64,3.19,3.19,0,0,0-1.2-.19h-1.32v10h-5.46V9.26h5.46Z"/><path class="cls-4" d="M163.72,24.09V32.8h-5.46V9.26h7.66a15.72,15.72,0,0,1,4.35.52,8.18,8.18,0,0,1,2.94,1.46,5.54,5.54,0,0,1,1.66,2.21,7.34,7.34,0,0,1,.52,2.78,7.46,7.46,0,0,1-.31,2.16,6.55,6.55,0,0,1-.91,1.88,7.06,7.06,0,0,1-1.49,1.54,7.9,7.9,0,0,1-2,1.11,5.18,5.18,0,0,1,1,.68,4,4,0,0,1,.83,1l5,8.19h-4.94a2.1,2.1,0,0,1-2-1l-3.91-6.83a1.65,1.65,0,0,0-.61-.65,2,2,0,0,0-1-.19Zm0-3.76h2.2a5.61,5.61,0,0,0,1.9-.28,3.43,3.43,0,0,0,1.28-.78,3,3,0,0,0,.73-1.17,4.49,4.49,0,0,0,.23-1.45,3,3,0,0,0-1-2.42,4.7,4.7,0,0,0-3.13-.87h-2.2Z"/><path class="cls-4" d="M197,9.26v2a2.55,2.55,0,0,1-.14.82,3.13,3.13,0,0,1-.38.76L185.41,28.6h11.21v4.2H178.46V30.7a2.17,2.17,0,0,1,.13-.74,2.57,2.57,0,0,1,.36-.67L190,13.46H179.36V9.26Z"/><path class="cls-4" d="M214.62,9.26v4.2H205v5.49h7.4v4H205V28.6h9.66v4.2H199.46V9.26Z"/><path class="cls-4" d="M223.18,24.93V32.8h-5.46V9.26H226a13.7,13.7,0,0,1,4.27.59,8.2,8.2,0,0,1,2.94,1.62,6.33,6.33,0,0,1,1.7,2.44,8.26,8.26,0,0,1,.55,3,8.94,8.94,0,0,1-.57,3.23,6.48,6.48,0,0,1-1.73,2.52,8.15,8.15,0,0,1-2.95,1.64,13.51,13.51,0,0,1-4.22.59Zm0-4.12H226a4,4,0,0,0,3.07-1,4,4,0,0,0,.94-2.84,4.26,4.26,0,0,0-.24-1.47,3,3,0,0,0-.73-1.14,3.31,3.31,0,0,0-1.25-.74,5.5,5.5,0,0,0-1.78-.26h-2.84Z"/><path class="cls-4" d="M255.43,9.26v4.33h-6.63V32.8h-5.46V13.59h-6.63V9.26Z"/><path class="cls-4" d="M280,21a12.65,12.65,0,0,1-.88,4.75,11.23,11.23,0,0,1-6.33,6.37,14.06,14.06,0,0,1-10,0,11.24,11.24,0,0,1-6.36-6.37A12.65,12.65,0,0,1,255.5,21a12.65,12.65,0,0,1,.88-4.75,11.3,11.3,0,0,1,2.49-3.81,11.5,11.5,0,0,1,3.87-2.54,13.17,13.17,0,0,1,5-.92,13,13,0,0,1,5,.93,11.53,11.53,0,0,1,3.85,2.54,11.38,11.38,0,0,1,2.48,3.81A12.61,12.61,0,0,1,280,21Zm-5.59,0a10.2,10.2,0,0,0-.45-3.14,6.66,6.66,0,0,0-1.3-2.37A5.61,5.61,0,0,0,270.54,14a7.15,7.15,0,0,0-2.79-.52,7.26,7.26,0,0,0-2.82.52,5.6,5.6,0,0,0-2.08,1.49,6.66,6.66,0,0,0-1.3,2.37,10.18,10.18,0,0,0-.45,3.14,10.24,10.24,0,0,0,.45,3.16,6.66,6.66,0,0,0,1.3,2.37A5.51,5.51,0,0,0,264.92,28a7.35,7.35,0,0,0,2.82.51,7.24,7.24,0,0,0,2.79-.51,5.53,5.53,0,0,0,2.08-1.48,6.66,6.66,0,0,0,1.3-2.37A10.26,10.26,0,0,0,274.37,21Zm.26-17.27L269.86,7.2a2.42,2.42,0,0,1-.78.43,3.34,3.34,0,0,1-.91.11h-4l2.92-3.18a2.83,2.83,0,0,1,.41-.4,2,2,0,0,1,.43-.25,1.8,1.8,0,0,1,.5-.13,5.61,5.61,0,0,1,.65,0Z"/><path class="cls-4" d="M280.8,9.26h4.59a2.07,2.07,0,0,1,1.19.32,1.48,1.48,0,0,1,.62.86l3.23,12.28q.16.6.32,1.28a11.58,11.58,0,0,1,.24,1.42q.16-.76.36-1.43l.37-1.27,3.81-12.28a1.69,1.69,0,0,1,.62-.82,1.85,1.85,0,0,1,1.16-.36h1.62a2,2,0,0,1,1.17.31,1.62,1.62,0,0,1,.64.86l3.78,12.28.37,1.2q.19.64.34,1.37.13-.71.27-1.36t.28-1.21L309,10.43a1.54,1.54,0,0,1,.61-.82,1.91,1.91,0,0,1,1.16-.36h4.3L307.81,32.8h-4.94l-4.43-14.59q-.11-.34-.23-.74t-.23-.86q-.11.45-.23.86c-.08.27-.16.52-.23.74L293,32.8h-4.94Z"/></g></g></svg>